<?xml version="1.0" encoding="UTF-8" standalone="no"?>
<!DOCTYPE svg PUBLIC "-//W3C//DTD SVG 1.1//EN"
 "http://www.w3.org/Graphics/SVG/1.1/DTD/svg11.dtd">
<!-- Generated by graphviz version 2.47.0 (20210316.0004)
 -->
<!-- Title: dependencies Pages: 1 -->
<svg width="504pt" height="360pt"
 viewBox="0.00 0.00 504.00 360.00" xmlns="http://www.w3.org/2000/svg" xmlns:xlink="http://www.w3.org/1999/xlink">
<g id="graph0" class="graph" transform="scale(1 1) rotate(0) translate(4 356)">
<title>dependencies</title>
<polygon fill="white" stroke="transparent" points="-4,4 -4,-356 500,-356 500,4 -4,4"/>
<text text-anchor="start" x="227.01" y="-42.4" font-family="sans-serif" font-weight="bold" font-size="14.00">Legend</text>
<polygon fill="#ffffb3" stroke="transparent" points="14,-10 14,-30 34,-30 34,-10 14,-10"/>
<text text-anchor="start" x="37.63" y="-15.4" font-family="sans-serif" font-size="14.00"> &#160;Declarations</text>
<polygon fill="#8dd3c7" stroke="transparent" points="127,-10 127,-30 147,-30 147,-10 127,-10"/>
<text text-anchor="start" x="150.73" y="-15.4" font-family="sans-serif" font-size="14.00"> &#160;Module</text>
<polygon fill="#80b1d3" stroke="transparent" points="213,-10 213,-30 233,-30 233,-10 213,-10"/>
<text text-anchor="start" x="236.78" y="-15.4" font-family="sans-serif" font-size="14.00"> &#160;Bootstrap</text>
<polygon fill="#fdb462" stroke="transparent" points="310,-10 310,-30 330,-30 330,-10 310,-10"/>
<text text-anchor="start" x="333.67" y="-15.4" font-family="sans-serif" font-size="14.00"> &#160;Providers</text>
<polygon fill="#fb8072" stroke="transparent" points="406,-10 406,-30 426,-30 426,-10 406,-10"/>
<text text-anchor="start" x="429.73" y="-15.4" font-family="sans-serif" font-size="14.00"> &#160;Exports</text>
<g id="clust1" class="cluster">
<title>cluster_AppBrowserModule</title>
<polygon fill="none" stroke="black" stroke-dasharray="1,5" points="11,-146 11,-344 341,-344 341,-146 11,-146"/>
</g>
<g id="clust3" class="cluster">
<title>cluster_AppBrowserModule_imports</title>
<polygon fill="none" stroke="black" points="19,-154 19,-206 333,-206 333,-154 19,-154"/>
</g>
<g id="clust5" class="cluster">
<title>cluster_AppBrowserModule_bootstrap</title>
<polygon fill="none" stroke="black" points="186,-284 186,-336 310,-336 310,-284 186,-284"/>
</g>
<g id="clust13" class="cluster">
<title>cluster_AppServerModule</title>
<polygon fill="none" stroke="black" stroke-dasharray="1,5" points="349,-219 349,-271 485,-271 485,-219 349,-219"/>
</g>
<g id="clust19" class="cluster">
<title>cluster_CoreModule</title>
<polygon fill="none" stroke="black" stroke-dasharray="1,5" points="213,-70 213,-138 351,-138 351,-70 213,-70"/>
</g>
<g id="clust20" class="cluster">
<title>cluster_CoreModule_declarations</title>
<polygon fill="none" stroke="black" points="221,-78 221,-130 343,-130 343,-78 221,-78"/>
</g>
<!-- !environment -->
<g id="node1" class="node">
<title>!environment</title>
<polygon fill="#8dd3c7" stroke="black" points="118.92,-198 115.92,-202 94.92,-202 91.92,-198 27.08,-198 27.08,-162 118.92,-162 118.92,-198"/>
<text text-anchor="middle" x="73" y="-175.8" font-family="Times,serif" font-size="14.00">!environment</text>
</g>
<!-- AppBrowserModule -->
<g id="node4" class="node">
<title>AppBrowserModule</title>
<polygon fill="#8dd3c7" stroke="black" points="267.58,-263 264.58,-267 243.58,-267 240.58,-263 136.42,-263 136.42,-227 267.58,-227 267.58,-263"/>
<text text-anchor="middle" x="202" y="-240.8" font-family="Times,serif" font-size="14.00">AppBrowserModule</text>
</g>
<!-- !environment&#45;&gt;AppBrowserModule -->
<g id="edge1" class="edge">
<title>!environment&#45;&gt;AppBrowserModule</title>
<path fill="none" stroke="black" d="M73,-198.11C73,-217.34 73,-245 73,-245 73,-245 126.37,-245 126.37,-245"/>
<polygon fill="black" stroke="black" points="126.37,-248.5 136.37,-245 126.37,-241.5 126.37,-248.5"/>
</g>
<!-- AppModule -->
<g id="node2" class="node">
<title>AppModule</title>
<polygon fill="#8dd3c7" stroke="black" points="220.66,-198 217.66,-202 196.66,-202 193.66,-198 137.34,-198 137.34,-162 220.66,-162 220.66,-198"/>
<text text-anchor="middle" x="179" y="-175.8" font-family="Times,serif" font-size="14.00">AppModule</text>
</g>
<!-- AppModule&#45;&gt;AppBrowserModule -->
<g id="edge2" class="edge">
<title>AppModule&#45;&gt;AppBrowserModule</title>
<path fill="none" stroke="black" d="M165.06,-198.11C165.06,-198.11 165.06,-216.99 165.06,-216.99"/>
<polygon fill="black" stroke="black" points="161.56,-216.99 165.06,-226.99 168.56,-216.99 161.56,-216.99"/>
</g>
<!-- AppServerModule -->
<g id="node6" class="node">
<title>AppServerModule</title>
<polygon fill="#8dd3c7" stroke="black" points="477.19,-263 474.19,-267 453.19,-267 450.19,-263 356.81,-263 356.81,-227 477.19,-227 477.19,-263"/>
<text text-anchor="middle" x="417" y="-240.8" font-family="Times,serif" font-size="14.00">AppServerModule</text>
</g>
<!-- AppModule&#45;&gt;AppServerModule -->
<g id="edge5" class="edge">
<title>AppModule&#45;&gt;AppServerModule</title>
<path fill="none" stroke="black" d="M192.94,-198.04C192.94,-205.75 192.94,-213 192.94,-213 192.94,-213 417,-213 417,-213 417,-213 417,-216.76 417,-216.76"/>
<polygon fill="black" stroke="black" points="413.5,-216.76 417,-226.76 420.5,-216.76 413.5,-216.76"/>
</g>
<!-- CoreModule -->
<g id="node3" class="node">
<title>CoreModule</title>
<polygon fill="#8dd3c7" stroke="black" points="325.26,-198 322.26,-202 301.26,-202 298.26,-198 238.74,-198 238.74,-162 325.26,-162 325.26,-198"/>
<text text-anchor="middle" x="282" y="-175.8" font-family="Times,serif" font-size="14.00">CoreModule</text>
</g>
<!-- CoreModule&#45;&gt;AppBrowserModule -->
<g id="edge3" class="edge">
<title>CoreModule&#45;&gt;AppBrowserModule</title>
<path fill="none" stroke="black" d="M253.08,-198.11C253.08,-198.11 253.08,-216.99 253.08,-216.99"/>
<polygon fill="black" stroke="black" points="249.58,-216.99 253.08,-226.99 256.58,-216.99 249.58,-216.99"/>
</g>
<!-- CoreModule&#45;&gt;AppServerModule -->
<g id="edge6" class="edge">
<title>CoreModule&#45;&gt;AppServerModule</title>
<path fill="none" stroke="black" d="M313.93,-198.02C313.93,-215.37 313.93,-239 313.93,-239 313.93,-239 346.74,-239 346.74,-239"/>
<polygon fill="black" stroke="black" points="346.74,-242.5 356.74,-239 346.74,-235.5 346.74,-242.5"/>
</g>
<!-- AppComponent  -->
<g id="node5" class="node">
<title>AppComponent </title>
<polygon fill="#80b1d3" stroke="black" points="302.44,-328 193.56,-328 193.56,-292 302.44,-292 302.44,-328"/>
<text text-anchor="middle" x="248" y="-305.8" font-family="Times,serif" font-size="14.00">AppComponent </text>
</g>
<!-- AppBrowserModule&#45;&gt;AppComponent  -->
<g id="edge4" class="edge">
<title>AppBrowserModule&#45;&gt;AppComponent </title>
<path fill="none" stroke="black" stroke-dasharray="1,5" d="M230.54,-263.11C230.54,-263.11 230.54,-281.99 230.54,-281.99"/>
<polygon fill="black" stroke="black" points="227.04,-281.99 230.54,-291.99 234.04,-281.99 227.04,-281.99"/>
</g>
<!-- AppServerModule&#45;&gt;AppComponent  -->
<g id="edge7" class="edge">
<title>AppServerModule&#45;&gt;AppComponent </title>
<path fill="none" stroke="black" stroke-dasharray="1,5" d="M356.8,-251C321.98,-251 285,-251 285,-251 285,-251 285,-281.98 285,-281.98"/>
<polygon fill="black" stroke="black" points="281.5,-281.98 285,-291.98 288.5,-281.98 281.5,-281.98"/>
</g>
<!-- AppComponent -->
<g id="node7" class="node">
<title>AppComponent</title>
<polygon fill="#ffffb3" stroke="black" points="334.94,-122 229.06,-122 229.06,-86 334.94,-86 334.94,-122"/>
<text text-anchor="middle" x="282" y="-99.8" font-family="Times,serif" font-size="14.00">AppComponent</text>
</g>
<!-- AppComponent&#45;&gt;CoreModule -->
<g id="edge8" class="edge">
<title>AppComponent&#45;&gt;CoreModule</title>
<path fill="none" stroke="black" d="M282,-122.01C282,-122.01 282,-151.85 282,-151.85"/>
<polygon fill="black" stroke="black" points="278.5,-151.85 282,-161.85 285.5,-151.85 278.5,-151.85"/>
</g>
</g>
</svg>
