<?xml version="1.0" encoding="UTF-8" standalone="no"?>
<!DOCTYPE svg PUBLIC "-//W3C//DTD SVG 1.1//EN"
 "http://www.w3.org/Graphics/SVG/1.1/DTD/svg11.dtd">
<!-- Generated by graphviz version 2.47.0 (20210316.0004)
 -->
<!-- Title: dependencies Pages: 1 -->
<svg width="504pt" height="284pt"
 viewBox="0.00 0.00 504.00 284.00" xmlns="http://www.w3.org/2000/svg" xmlns:xlink="http://www.w3.org/1999/xlink">
<g id="graph0" class="graph" transform="scale(1 1) rotate(0) translate(4 280)">
<title>dependencies</title>
<polygon fill="white" stroke="transparent" points="-4,4 -4,-280 500,-280 500,4 -4,4"/>
<text text-anchor="start" x="227.01" y="-42.4" font-family="sans-serif" font-weight="bold" font-size="14.00">Legend</text>
<polygon fill="#ffffb3" stroke="transparent" points="14,-10 14,-30 34,-30 34,-10 14,-10"/>
<text text-anchor="start" x="37.63" y="-15.4" font-family="sans-serif" font-size="14.00"> &#160;Declarations</text>
<polygon fill="#8dd3c7" stroke="transparent" points="127,-10 127,-30 147,-30 147,-10 127,-10"/>
<text text-anchor="start" x="150.73" y="-15.4" font-family="sans-serif" font-size="14.00"> &#160;Module</text>
<polygon fill="#80b1d3" stroke="transparent" points="213,-10 213,-30 233,-30 233,-10 213,-10"/>
<text text-anchor="start" x="236.78" y="-15.4" font-family="sans-serif" font-size="14.00"> &#160;Bootstrap</text>
<polygon fill="#fdb462" stroke="transparent" points="310,-10 310,-30 330,-30 330,-10 310,-10"/>
<text text-anchor="start" x="333.67" y="-15.4" font-family="sans-serif" font-size="14.00"> &#160;Providers</text>
<polygon fill="#fb8072" stroke="transparent" points="406,-10 406,-30 426,-30 426,-10 406,-10"/>
<text text-anchor="start" x="429.73" y="-15.4" font-family="sans-serif" font-size="14.00"> &#160;Exports</text>
<g id="clust1" class="cluster">
<title>cluster_AppBrowserModule</title>
<polygon fill="none" stroke="black" stroke-dasharray="1,5" points="135,-70 135,-268 361,-268 361,-70 135,-70"/>
</g>
<g id="clust3" class="cluster">
<title>cluster_AppBrowserModule_imports</title>
<polygon fill="none" stroke="black" points="143,-78 143,-130 353,-130 353,-78 143,-78"/>
</g>
<g id="clust5" class="cluster">
<title>cluster_AppBrowserModule_bootstrap</title>
<polygon fill="none" stroke="black" points="186,-208 186,-260 310,-260 310,-208 186,-208"/>
</g>
<!-- !environment -->
<g id="node1" class="node">
<title>!environment</title>
<polygon fill="#8dd3c7" stroke="black" points="344.92,-122 341.92,-126 320.92,-126 317.92,-122 253.08,-122 253.08,-86 344.92,-86 344.92,-122"/>
<text text-anchor="middle" x="299" y="-99.8" font-family="Times,serif" font-size="14.00">!environment</text>
</g>
<!-- AppBrowserModule -->
<g id="node3" class="node">
<title>AppBrowserModule</title>
<polygon fill="#8dd3c7" stroke="black" points="313.58,-187 310.58,-191 289.58,-191 286.58,-187 182.42,-187 182.42,-151 313.58,-151 313.58,-187"/>
<text text-anchor="middle" x="248" y="-164.8" font-family="Times,serif" font-size="14.00">AppBrowserModule</text>
</g>
<!-- !environment&#45;&gt;AppBrowserModule -->
<g id="edge1" class="edge">
<title>!environment&#45;&gt;AppBrowserModule</title>
<path fill="none" stroke="black" d="M283.41,-122.11C283.41,-122.11 283.41,-140.99 283.41,-140.99"/>
<polygon fill="black" stroke="black" points="279.91,-140.99 283.41,-150.99 286.91,-140.99 279.91,-140.99"/>
</g>
<!-- AppModule -->
<g id="node2" class="node">
<title>AppModule</title>
<polygon fill="#8dd3c7" stroke="black" points="234.66,-122 231.66,-126 210.66,-126 207.66,-122 151.34,-122 151.34,-86 234.66,-86 234.66,-122"/>
<text text-anchor="middle" x="193" y="-99.8" font-family="Times,serif" font-size="14.00">AppModule</text>
</g>
<!-- AppModule&#45;&gt;AppBrowserModule -->
<g id="edge2" class="edge">
<title>AppModule&#45;&gt;AppBrowserModule</title>
<path fill="none" stroke="black" d="M208.64,-122.11C208.64,-122.11 208.64,-140.99 208.64,-140.99"/>
<polygon fill="black" stroke="black" points="205.14,-140.99 208.64,-150.99 212.14,-140.99 205.14,-140.99"/>
</g>
<!-- AppComponent  -->
<g id="node4" class="node">
<title>AppComponent </title>
<polygon fill="#80b1d3" stroke="black" points="302.44,-252 193.56,-252 193.56,-216 302.44,-216 302.44,-252"/>
<text text-anchor="middle" x="248" y="-229.8" font-family="Times,serif" font-size="14.00">AppComponent </text>
</g>
<!-- AppBrowserModule&#45;&gt;AppComponent  -->
<g id="edge3" class="edge">
<title>AppBrowserModule&#45;&gt;AppComponent </title>
<path fill="none" stroke="black" stroke-dasharray="1,5" d="M248,-187.11C248,-187.11 248,-205.99 248,-205.99"/>
<polygon fill="black" stroke="black" points="244.5,-205.99 248,-215.99 251.5,-205.99 244.5,-205.99"/>
</g>
</g>
</svg>
