<?xml version="1.0" encoding="UTF-8" standalone="no"?>
<!DOCTYPE svg PUBLIC "-//W3C//DTD SVG 1.1//EN"
 "http://www.w3.org/Graphics/SVG/1.1/DTD/svg11.dtd">
<!-- Generated by graphviz version 2.47.0 (20210316.0004)
 -->
<!-- Title: dependencies Pages: 1 -->
<svg width="504pt" height="360pt"
 viewBox="0.00 0.00 504.00 360.00" xmlns="http://www.w3.org/2000/svg" xmlns:xlink="http://www.w3.org/1999/xlink">
<g id="graph0" class="graph" transform="scale(1 1) rotate(0) translate(4 356)">
<title>dependencies</title>
<polygon fill="white" stroke="transparent" points="-4,4 -4,-356 500,-356 500,4 -4,4"/>
<text text-anchor="start" x="227.01" y="-42.4" font-family="sans-serif" font-weight="bold" font-size="14.00">Legend</text>
<polygon fill="#ffffb3" stroke="transparent" points="14,-10 14,-30 34,-30 34,-10 14,-10"/>
<text text-anchor="start" x="37.63" y="-15.4" font-family="sans-serif" font-size="14.00"> &#160;Declarations</text>
<polygon fill="#8dd3c7" stroke="transparent" points="127,-10 127,-30 147,-30 147,-10 127,-10"/>
<text text-anchor="start" x="150.73" y="-15.4" font-family="sans-serif" font-size="14.00"> &#160;Module</text>
<polygon fill="#80b1d3" stroke="transparent" points="213,-10 213,-30 233,-30 233,-10 213,-10"/>
<text text-anchor="start" x="236.78" y="-15.4" font-family="sans-serif" font-size="14.00"> &#160;Bootstrap</text>
<polygon fill="#fdb462" stroke="transparent" points="310,-10 310,-30 330,-30 330,-10 310,-10"/>
<text text-anchor="start" x="333.67" y="-15.4" font-family="sans-serif" font-size="14.00"> &#160;Providers</text>
<polygon fill="#fb8072" stroke="transparent" points="406,-10 406,-30 426,-30 426,-10 406,-10"/>
<text text-anchor="start" x="429.73" y="-15.4" font-family="sans-serif" font-size="14.00"> &#160;Exports</text>
<g id="clust1" class="cluster">
<title>cluster_AppBrowserModule</title>
<polygon fill="none" stroke="black" stroke-dasharray="1,5" points="140.5,-146 140.5,-344 366.5,-344 366.5,-146 140.5,-146"/>
</g>
<g id="clust3" class="cluster">
<title>cluster_AppBrowserModule_imports</title>
<polygon fill="none" stroke="black" points="148.5,-154 148.5,-206 358.5,-206 358.5,-154 148.5,-154"/>
</g>
<g id="clust5" class="cluster">
<title>cluster_AppBrowserModule_bootstrap</title>
<polygon fill="none" stroke="black" points="191.5,-284 191.5,-336 315.5,-336 315.5,-284 191.5,-284"/>
</g>
<g id="clust7" class="cluster">
<title>cluster_AppModule</title>
<polygon fill="none" stroke="black" stroke-dasharray="1,5" points="129.5,-70 129.5,-138 267.5,-138 267.5,-70 129.5,-70"/>
</g>
<g id="clust8" class="cluster">
<title>cluster_AppModule_declarations</title>
<polygon fill="none" stroke="black" points="137.5,-78 137.5,-130 259.5,-130 259.5,-78 137.5,-78"/>
</g>
<!-- !environment -->
<g id="node1" class="node">
<title>!environment</title>
<polygon fill="#8dd3c7" stroke="black" points="350.42,-198 347.42,-202 326.42,-202 323.42,-198 258.58,-198 258.58,-162 350.42,-162 350.42,-198"/>
<text text-anchor="middle" x="304.5" y="-175.8" font-family="Times,serif" font-size="14.00">!environment</text>
</g>
<!-- AppBrowserModule -->
<g id="node3" class="node">
<title>AppBrowserModule</title>
<polygon fill="#8dd3c7" stroke="black" points="319.08,-263 316.08,-267 295.08,-267 292.08,-263 187.92,-263 187.92,-227 319.08,-227 319.08,-263"/>
<text text-anchor="middle" x="253.5" y="-240.8" font-family="Times,serif" font-size="14.00">AppBrowserModule</text>
</g>
<!-- !environment&#45;&gt;AppBrowserModule -->
<g id="edge1" class="edge">
<title>!environment&#45;&gt;AppBrowserModule</title>
<path fill="none" stroke="black" d="M288.91,-198.11C288.91,-198.11 288.91,-216.99 288.91,-216.99"/>
<polygon fill="black" stroke="black" points="285.41,-216.99 288.91,-226.99 292.41,-216.99 285.41,-216.99"/>
</g>
<!-- AppModule -->
<g id="node2" class="node">
<title>AppModule</title>
<polygon fill="#8dd3c7" stroke="black" points="240.16,-198 237.16,-202 216.16,-202 213.16,-198 156.84,-198 156.84,-162 240.16,-162 240.16,-198"/>
<text text-anchor="middle" x="198.5" y="-175.8" font-family="Times,serif" font-size="14.00">AppModule</text>
</g>
<!-- AppModule&#45;&gt;AppBrowserModule -->
<g id="edge2" class="edge">
<title>AppModule&#45;&gt;AppBrowserModule</title>
<path fill="none" stroke="black" d="M214.14,-198.11C214.14,-198.11 214.14,-216.99 214.14,-216.99"/>
<polygon fill="black" stroke="black" points="210.64,-216.99 214.14,-226.99 217.64,-216.99 210.64,-216.99"/>
</g>
<!-- AppComponent  -->
<g id="node4" class="node">
<title>AppComponent </title>
<polygon fill="#80b1d3" stroke="black" points="307.94,-328 199.06,-328 199.06,-292 307.94,-292 307.94,-328"/>
<text text-anchor="middle" x="253.5" y="-305.8" font-family="Times,serif" font-size="14.00">AppComponent </text>
</g>
<!-- AppBrowserModule&#45;&gt;AppComponent  -->
<g id="edge3" class="edge">
<title>AppBrowserModule&#45;&gt;AppComponent </title>
<path fill="none" stroke="black" stroke-dasharray="1,5" d="M253.5,-263.11C253.5,-263.11 253.5,-281.99 253.5,-281.99"/>
<polygon fill="black" stroke="black" points="250,-281.99 253.5,-291.99 257,-281.99 250,-281.99"/>
</g>
<!-- AppComponent -->
<g id="node5" class="node">
<title>AppComponent</title>
<polygon fill="#ffffb3" stroke="black" points="251.44,-122 145.56,-122 145.56,-86 251.44,-86 251.44,-122"/>
<text text-anchor="middle" x="198.5" y="-99.8" font-family="Times,serif" font-size="14.00">AppComponent</text>
</g>
<!-- AppComponent&#45;&gt;AppModule -->
<g id="edge4" class="edge">
<title>AppComponent&#45;&gt;AppModule</title>
<path fill="none" stroke="black" d="M198.5,-122.01C198.5,-122.01 198.5,-151.85 198.5,-151.85"/>
<polygon fill="black" stroke="black" points="195,-151.85 198.5,-161.85 202,-151.85 195,-151.85"/>
</g>
</g>
</svg>
